<svg width="543" height="128" viewBox="0 0 543 128" fill="none" xmlns="http://www.w3.org/2000/svg">
<path d="M66.5939 115.38C63.5939 115.38 61.3139 114.72 59.7539 113.4C58.3139 112.08 57.5939 110.28 57.5939 108C57.5939 105.84 58.2539 103.5 59.5739 100.98C60.8939 98.4604 62.7539 96.1204 65.1539 93.9604C65.8739 93.3604 66.4739 93.0004 66.9539 92.8804C67.3139 92.8804 67.6139 93.0004 67.8539 93.2404C67.9739 93.3604 68.0339 93.6004 68.0339 93.9604C68.0339 94.8004 67.4939 95.7604 66.4139 96.8404C63.0539 100.32 61.3739 103.26 61.3739 105.66C61.3739 106.98 61.9739 108.18 63.1739 109.26C64.3739 110.34 65.7539 110.82 67.3139 110.7C73.3139 110.46 79.4939 109.14 85.8539 106.74C92.2139 104.34 98.1539 101.04 103.674 96.8404C109.194 92.5204 113.754 87.6004 117.354 82.0804C119.994 78.2404 121.314 74.8804 121.314 72.0004C121.314 68.2804 118.914 66.4204 114.114 66.4204C113.274 66.4204 112.314 66.5404 111.234 66.7804C110.154 66.9004 108.954 67.0804 107.634 67.3204L98.6339 69.3004C91.3139 70.8604 84.8339 72.2404 79.1939 73.4404C73.5539 74.5204 68.5139 75.0604 64.0739 75.0604C58.9139 75.0604 54.8939 74.2804 52.0139 72.7204C49.2539 71.0404 47.8739 68.2204 47.8739 64.2604C47.8739 62.4604 48.2339 60.3004 48.9539 57.7804C51.3539 49.8604 57.7739 41.46 68.2139 32.58C75.2939 26.58 83.2139 21.24 91.9739 16.56C100.734 11.76 109.554 7.98 118.434 5.22C127.434 2.34 135.834 0.900002 143.634 0.900002C149.634 0.900002 154.374 2.22 157.854 4.86C161.454 7.5001 163.254 11.1001 163.254 15.66C163.254 19.86 161.754 24.36 158.754 29.16C157.914 30.36 157.194 30.96 156.594 30.96C156.354 30.96 156.114 30.78 155.874 30.42C155.634 29.94 155.514 29.46 155.514 28.98C155.514 28.86 155.514 28.68 155.514 28.44C155.634 28.08 155.754 27.66 155.874 27.18C156.834 24.3 157.314 21.54 157.314 18.9C157.314 14.82 155.874 11.76 152.994 9.7201C150.234 7.68 146.214 6.9 140.934 7.38C131.694 8.34 121.134 11.28 109.254 16.2C101.214 19.56 93.5939 23.52 86.3939 28.08C79.3139 32.64 73.1939 37.5 68.0339 42.66C62.9939 47.7004 59.5139 52.8004 57.5939 57.9604C57.1139 58.9204 56.8739 60.0604 56.8739 61.3804C56.8739 66.1804 61.6139 68.5804 71.0939 68.5804C75.6539 68.5804 80.6339 68.1004 86.0339 67.1404C91.5539 66.1804 97.9139 64.9804 105.114 63.5404L111.414 62.2804C113.574 61.9204 115.674 61.7404 117.714 61.7404C121.554 61.7404 124.614 62.5204 126.894 64.0804C129.174 65.6404 130.314 67.8004 130.314 70.5604C130.314 73.0804 129.234 76.0804 127.074 79.5604C125.034 82.8004 122.634 85.9204 119.874 88.9204C117.114 91.8004 114.054 94.6204 110.694 97.3804C103.854 102.9 96.5339 107.28 88.7339 110.52C80.9339 113.76 73.5539 115.38 66.5939 115.38ZM144.275 105.84C141.755 105.84 139.535 105.18 137.615 103.86C134.495 101.46 132.935 97.8604 132.935 93.0604C132.935 88.2604 134.615 83.1604 137.975 77.7604C141.335 72.3604 146.435 67.3804 153.275 62.8204C154.475 61.9804 156.095 61.5604 158.135 61.5604C160.775 61.5604 163.115 62.2804 165.155 63.7204C167.315 65.1604 168.155 67.0204 167.675 69.3004C166.835 73.0204 164.975 76.3204 162.095 79.2004C159.335 82.0804 156.035 84.6604 152.195 86.9404C148.475 89.1004 144.635 91.2004 140.675 93.2404C140.555 93.6004 140.435 93.9604 140.315 94.3204C140.315 94.6804 140.315 95.0404 140.315 95.4004C140.315 97.0804 140.855 98.5804 141.935 99.9004C143.135 101.1 144.755 101.7 146.795 101.7C148.355 101.7 149.675 101.46 150.755 100.98C152.675 100.26 154.235 99.6004 155.435 99.0004C156.755 98.4004 158.255 97.5004 159.935 96.3004C161.615 95.1004 163.895 93.3004 166.775 90.9004C168.095 89.9404 168.875 89.4604 169.115 89.4604C169.835 89.4604 170.075 90.0004 169.835 91.0804C168.635 93.0004 166.535 95.1004 163.535 97.3804C160.655 99.6604 157.415 101.64 153.815 103.32C150.335 105 147.155 105.84 144.275 105.84ZM141.755 88.3804C142.715 88.3804 144.695 87.4204 147.695 85.5004C150.695 83.5804 153.515 81.4804 156.155 79.2004C160.715 75.0004 162.995 71.7604 162.995 69.4804C162.995 68.8804 162.815 68.3404 162.455 67.8604C162.095 67.2604 161.555 66.9604 160.835 66.9604C158.555 66.9604 154.715 69.6604 149.315 75.0604C145.595 78.6604 143.075 83.1004 141.755 88.3804ZM173.478 110.34C170.838 110.34 169.758 107.1 170.238 100.62C170.478 99.1804 170.958 96.9004 171.678 93.7804C172.518 90.6604 173.538 87.2404 174.738 83.5204C175.938 79.6804 177.078 76.2604 178.158 73.2604C178.878 71.2204 180.138 69.3004 181.938 67.5004C183.858 65.7004 185.418 64.8004 186.618 64.8004C187.338 64.8004 187.698 65.2804 187.698 66.2404C187.698 67.5604 186.978 69.6004 185.538 72.3604C183.738 75.7204 182.298 78.6004 181.218 81.0004C180.138 83.2804 179.238 85.6204 178.518 88.0204C177.918 90.3004 177.258 93.1204 176.538 96.4804V98.1004C176.538 101.94 177.378 103.14 179.058 101.7C182.178 99.1804 185.418 96.2404 188.778 92.8804C192.138 89.4004 195.318 85.9204 198.318 82.4404C201.318 78.9604 203.718 75.9004 205.518 73.2604C206.718 71.3404 208.098 69.9004 209.658 68.9404C211.338 67.8604 212.058 67.6804 211.818 68.4004C211.698 69.4804 210.678 71.4604 208.758 74.3404C206.958 77.2204 204.678 80.4604 201.918 84.0604C199.278 87.5404 196.518 90.9004 193.638 94.1404C190.878 97.3804 188.418 99.9004 186.258 101.7C185.418 102.54 184.158 103.62 182.478 104.94C180.918 106.38 179.298 107.64 177.618 108.72C175.938 109.8 174.558 110.34 173.478 110.34ZM232.416 108.72C232.176 108.72 231.936 108.66 231.696 108.54C231.456 108.54 231.216 108.48 230.976 108.36C229.296 107.52 228.216 106.32 227.736 104.76C227.256 103.2 227.136 101.22 227.376 98.8204C227.616 97.8604 227.856 96.1804 228.096 93.7804C228.456 91.3804 228.876 89.4604 229.356 88.0204L220.176 96.8404L215.136 101.7C211.656 105.18 208.776 106.92 206.496 106.92C205.536 106.92 204.756 106.56 204.156 105.84C203.076 104.52 202.536 102.9 202.536 100.98C202.536 98.4604 203.196 95.7604 204.516 92.8804C205.836 90.0004 207.396 87.2404 209.196 84.6004C210.996 81.8404 212.616 79.5604 214.056 77.7604C217.656 73.3204 221.136 69.8404 224.496 67.3204C227.976 64.8004 231.576 63.5404 235.296 63.5404C237.336 63.5404 239.316 63.9004 241.236 64.6204C243.276 65.3404 245.136 66.5404 246.816 68.2204L246.996 68.4004C246.996 68.7604 246.696 69.1204 246.096 69.4804C245.856 69.7204 245.616 69.9004 245.376 70.0204C245.256 70.1404 245.136 70.2604 245.016 70.3804C243.576 71.8204 241.956 74.2204 240.156 77.5804C238.356 80.9404 236.796 84.4804 235.476 88.2004C234.156 91.8004 233.496 94.9204 233.496 97.5604C233.496 99.9604 234.096 101.58 235.296 102.42C235.896 102.78 236.556 102.96 237.276 102.96C238.836 102.96 240.996 102 243.756 100.08C243.876 99.9604 244.116 99.7804 244.476 99.5404C244.956 99.1804 245.616 98.7004 246.456 98.1004C247.416 97.3804 248.196 97.0204 248.796 97.0204C249.396 97.0204 249.696 97.2604 249.696 97.7404C249.696 98.4604 249.216 99.3004 248.256 100.26C247.536 100.86 246.696 101.52 245.736 102.24C244.896 102.96 243.876 103.68 242.676 104.4C240.876 105.72 239.016 106.74 237.096 107.46C235.176 108.3 233.616 108.72 232.416 108.72ZM212.076 97.2004C214.596 97.2004 219.276 93.4804 226.116 86.0404C227.916 84.0004 229.536 82.0804 230.976 80.2804C232.416 78.3604 233.736 76.5004 234.936 74.7004C237.096 71.2204 237.816 68.8204 237.096 67.5004C236.736 66.7804 236.016 66.4204 234.936 66.4204C233.616 66.4204 231.816 67.1404 229.536 68.5804C227.256 69.9004 224.916 71.6404 222.516 73.8004C220.236 75.9604 218.136 78.1204 216.216 80.2804C214.896 81.9604 213.576 84.3004 212.256 87.3004C210.936 90.3004 210.276 92.7604 210.276 94.6804C210.276 96.3604 210.876 97.2004 212.076 97.2004ZM329.399 72.7204C328.319 72.7204 327.779 72.0604 327.779 70.7404C327.779 69.4204 328.199 68.1004 329.039 66.7804C329.999 65.4604 331.019 64.8004 332.099 64.8004C332.699 64.6804 333.359 64.6204 334.079 64.6204C334.919 64.6204 335.939 64.5604 337.139 64.4404C338.219 64.4404 339.179 64.4404 340.019 64.4404C340.859 64.4404 341.519 64.3804 341.999 64.2604H342.179C342.899 64.2604 343.319 64.8004 343.439 65.8804C343.919 66.3604 344.339 66.6004 344.699 66.6004C356.699 64.3204 368.699 59.9404 380.699 53.4604C388.259 49.2604 393.959 44.7604 397.799 39.96C401.639 35.16 403.559 30.42 403.559 25.74C403.559 19.74 400.439 14.7 394.199 10.62C387.959 6.54 379.259 4.2 368.099 3.6C367.379 3.48 366.479 3.42 365.399 3.42C364.439 3.42 363.299 3.42 361.979 3.42C350.219 3.42 338.999 5.28 328.319 9C317.759 12.6 308.099 17.88 299.339 24.84C290.699 31.68 283.319 39.96 277.199 49.6804C276.719 50.4004 276.239 50.7604 275.759 50.7604C275.159 50.7604 274.859 50.1004 274.859 48.7804C274.859 46.5004 275.639 44.2204 277.199 41.94C283.199 32.7 290.939 25.02 300.419 18.9C309.899 12.66 320.339 7.98 331.739 4.86C343.259 1.62 355.019 0 367.019 0C376.499 0 384.959 1.02 392.399 3.06C399.479 5.1 404.879 7.92 408.599 11.52C412.439 15.12 414.359 19.2 414.359 23.76C414.359 28.56 412.139 33.6 407.699 38.88C403.259 44.1604 396.599 49.2604 387.719 54.1804C383.039 56.7004 377.939 59.1004 372.419 61.3804C367.019 63.5404 361.619 65.5204 356.219 67.3204C350.819 69.0004 345.779 70.3204 341.099 71.2804C336.539 72.2404 332.699 72.7204 329.579 72.7204H329.399ZM307.799 115.38C301.079 115.38 297.719 112.14 297.719 105.66C297.719 104.1 297.899 102.42 298.259 100.62C299.939 90.5404 303.659 80.4604 309.419 70.3804C315.299 60.3004 322.379 49.6804 330.659 38.52L336.239 30.6C336.479 30.36 336.599 30 336.599 29.52C336.599 29.28 336.539 28.98 336.419 28.62C336.419 28.26 336.419 28.02 336.419 27.9C336.419 26.34 337.799 24.84 340.559 23.4C341.999 21 343.859 19.2 346.139 18C348.419 16.8 350.579 16.2 352.619 16.2C355.739 16.2 357.299 17.22 357.299 19.26C357.299 20.58 356.699 21.84 355.499 23.04C355.019 23.52 354.359 24.24 353.519 25.2C352.679 26.04 351.599 27.12 350.279 28.44C346.199 32.64 342.359 36.78 338.759 40.86C335.279 44.8204 331.979 48.7204 328.859 52.5604V52.3804C315.179 69.6604 306.719 85.7404 303.479 100.62C303.359 101.22 303.239 101.76 303.119 102.24C303.119 102.72 303.119 103.08 303.119 103.32C303.119 105.6 303.539 107.52 304.379 109.08C305.219 110.76 306.179 111.66 307.259 111.78C308.219 111.9 308.999 112.14 309.599 112.5C310.199 112.86 310.619 113.28 310.859 113.76V114.12C310.859 114.96 309.839 115.38 307.799 115.38ZM392.765 107.64C391.205 107.64 390.425 106.26 390.425 103.5C390.425 101.22 390.965 99.0004 392.045 96.8404C394.805 91.5604 397.325 86.3404 399.605 81.1804C401.165 78.0604 402.605 75.0604 403.925 72.1804C405.365 69.3004 406.685 66.6604 407.885 64.2604C408.605 63.5404 409.325 63.1804 410.045 63.1804C411.605 63.1804 412.085 63.9004 411.485 65.3404C411.245 66.1804 410.885 67.2004 410.405 68.4004C410.045 69.4804 409.565 70.8004 408.965 72.3604C407.045 77.4004 405.905 80.9404 405.545 82.9804C408.905 79.9804 412.325 77.2204 415.805 74.7004C419.405 72.0604 422.765 69.9004 425.885 68.2204C429.005 66.5404 431.645 65.7004 433.805 65.7004C435.725 65.7004 436.685 66.4804 436.685 68.0404C436.685 69.3604 436.085 70.8004 434.885 72.3604C433.685 73.8004 432.485 74.5204 431.285 74.5204C430.685 74.5204 430.205 74.3404 429.845 73.9804C429.485 73.8604 428.765 73.8004 427.685 73.8004C423.845 73.8004 419.825 75.6604 415.625 79.3804C411.185 83.1004 407.165 87.6004 403.565 92.8804C399.965 98.0404 397.325 102.54 395.645 106.38C394.805 107.22 393.845 107.64 392.765 107.64ZM438.533 105.84C436.013 105.84 433.793 105.18 431.873 103.86C428.753 101.46 427.193 97.8604 427.193 93.0604C427.193 88.2604 428.873 83.1604 432.233 77.7604C435.593 72.3604 440.693 67.3804 447.533 62.8204C448.733 61.9804 450.353 61.5604 452.393 61.5604C455.033 61.5604 457.373 62.2804 459.413 63.7204C461.573 65.1604 462.413 67.0204 461.933 69.3004C461.093 73.0204 459.233 76.3204 456.353 79.2004C453.593 82.0804 450.293 84.6604 446.453 86.9404C442.733 89.1004 438.893 91.2004 434.933 93.2404C434.813 93.6004 434.693 93.9604 434.573 94.3204C434.573 94.6804 434.573 95.0404 434.573 95.4004C434.573 97.0804 435.113 98.5804 436.193 99.9004C437.393 101.1 439.013 101.7 441.053 101.7C442.613 101.7 443.933 101.46 445.013 100.98C446.933 100.26 448.493 99.6004 449.693 99.0004C451.013 98.4004 452.513 97.5004 454.193 96.3004C455.873 95.1004 458.153 93.3004 461.033 90.9004C462.353 89.9404 463.133 89.4604 463.373 89.4604C464.093 89.4604 464.333 90.0004 464.093 91.0804C462.893 93.0004 460.793 95.1004 457.793 97.3804C454.913 99.6604 451.673 101.64 448.073 103.32C444.593 105 441.413 105.84 438.533 105.84ZM436.013 88.3804C436.973 88.3804 438.953 87.4204 441.953 85.5004C444.953 83.5804 447.773 81.4804 450.413 79.2004C454.973 75.0004 457.253 71.7604 457.253 69.4804C457.253 68.8804 457.073 68.3404 456.713 67.8604C456.353 67.2604 455.813 66.9604 455.093 66.9604C452.813 66.9604 448.973 69.6604 443.573 75.0604C439.853 78.6604 437.333 83.1004 436.013 88.3804ZM461.616 109.8C460.776 109.8 460.356 109.08 460.356 107.64C460.356 106.44 460.596 105 461.076 103.32C461.676 101.64 462.336 100.08 463.056 98.6404C464.136 96.6004 465.756 93.0004 467.916 87.8404C470.436 82.2004 472.536 77.7004 474.216 74.3404C475.896 70.8604 477.516 68.2204 479.076 66.4204C480.756 64.3804 482.076 63.3604 483.036 63.3604C483.636 63.3604 484.116 63.7804 484.476 64.6204C484.836 65.3404 485.016 66.1804 485.016 67.1404C485.016 68.1004 484.896 68.7004 484.656 68.9404C483.696 69.9004 482.436 71.5204 480.876 73.8004C479.316 76.0804 477.876 78.3604 476.556 80.6404C474.036 85.3204 472.776 88.8004 472.776 91.0804C472.776 91.3204 472.776 91.5604 472.776 91.8004C472.896 92.0404 473.016 92.2804 473.136 92.5204C474.576 91.8004 475.896 91.0804 477.096 90.3604C478.296 89.6404 479.676 88.6204 481.236 87.3004L492.216 77.2204C493.416 76.1404 494.496 75.2404 495.456 74.5204C496.416 73.8004 497.196 73.2004 497.796 72.7204C498.996 71.8804 500.136 71.4604 501.216 71.4604C502.176 71.4604 503.316 72.0604 504.636 73.2604C505.236 73.8604 505.536 75.4804 505.536 78.1204V82.6204C505.536 83.1004 505.476 83.5804 505.356 84.0604C505.356 84.4204 505.356 84.8404 505.356 85.3204C505.356 86.8804 505.536 88.2604 505.896 89.4604C506.376 90.5404 507.036 91.0804 507.876 91.0804C508.236 91.0804 508.716 90.7804 509.316 90.1804L514.356 84.2404C518.556 79.3204 521.796 75.7204 524.076 73.4404C526.356 71.1604 528.936 69.6004 531.816 68.7604C532.176 68.6404 532.476 68.5804 532.716 68.5804C533.076 68.4604 533.376 68.4004 533.616 68.4004C534.696 68.4004 535.596 68.7604 536.316 69.4804C537.156 70.2004 537.396 71.1604 537.036 72.3604C536.556 74.2804 535.896 76.5004 535.056 79.0204C534.336 81.4204 533.676 83.3404 533.076 84.7804C531.636 87.6604 530.916 89.9404 530.916 91.6204C530.916 92.7004 531.336 93.4204 532.176 93.7804C533.136 94.1404 534.036 94.3804 534.876 94.5004C535.836 94.6204 536.316 94.8604 536.316 95.2204C538.716 94.3804 540.516 93.9604 541.716 93.9604C542.916 93.9604 543.216 94.3804 542.616 95.2204C542.016 95.9404 540.936 96.8404 539.376 97.9204C537.816 99.0004 536.076 99.9604 534.156 100.8C532.356 101.52 530.736 101.88 529.296 101.88C526.296 101.88 524.796 100.26 524.796 97.0204C524.796 95.3404 525.036 93.7804 525.516 92.3404C527.196 86.2204 528.036 82.2604 528.036 80.4604C528.036 78.6604 527.556 77.7604 526.596 77.7604C524.436 77.7604 519.816 82.0804 512.736 90.7204C512.016 91.5604 511.176 92.4604 510.216 93.4204C509.376 94.3804 508.416 95.3404 507.336 96.3004C505.896 97.6204 504.516 99.0004 503.196 100.44C502.476 101.16 501.516 101.52 500.316 101.52C497.796 101.52 496.416 100.62 496.176 98.8204C496.056 96.9004 495.936 95.3404 495.816 94.1404C495.816 92.8204 495.816 91.9204 495.816 91.4404C495.576 88.3204 495.396 86.2204 495.276 85.1404C495.156 84.0604 494.616 83.5204 493.656 83.5204C492.456 83.5204 489.456 85.4404 484.656 89.2804C478.176 94.4404 472.236 100.2 466.836 106.56C464.556 108.72 462.816 109.8 461.616 109.8Z" fill="#2E2E2E"/>

</svg>
